<?xml version="1.0" encoding="utf-8"?>
<!-- Generator: Adobe Illustrator 26.0.3, SVG Export Plug-In . SVG Version: 6.00 Build 0)  -->
<svg version="1.1" id="Layer_1" xmlns="http://www.w3.org/2000/svg" xmlns:xlink="http://www.w3.org/1999/xlink" x="0px" y="0px"
	 viewBox="0 0 77.7 44" style="enable-background:new 0 0 77.7 44;" xml:space="preserve">
<style type="text/css">
	.st0{fill:url(#SVGID_1_);}
	.st1{fill:url(#SVGID_00000137129835375853086530000015504249720806205626_);}
	.st2{fill:url(#SVGID_00000176744653602911361090000007297705335146875836_);}
	.st3{fill:url(#SVGID_00000058573494164473631960000003386061461218626181_);}
	.st4{fill:url(#SVGID_00000080207096051914205840000008993509962188641692_);}
	.st5{fill:url(#SVGID_00000034781962571565186820000010170921613309954461_);}
	.st6{fill:#FF0000;}
	.st7{fill:url(#SVGID_00000038388983607311677280000006090741928871774636_);}
	.st8{fill:url(#SVGID_00000105388454408355099370000012751974675852182682_);}
	.st9{fill:url(#SVGID_00000009574637424323489630000015661677018018890931_);}
	.st10{fill:url(#SVGID_00000054964055826958618780000009323374062521911186_);}
</style>
<g>
	<linearGradient id="SVGID_1_" gradientUnits="userSpaceOnUse" x1="21.7526" y1="10.9874" x2="32.7476" y2="10.9874">
		<stop  offset="0" style="stop-color:#FF0000"/>
		<stop  offset="1" style="stop-color:#ED1C24"/>
	</linearGradient>
	<path class="st0" d="M32.7,4v4.9L26,21.1c-0.5-0.5-1.2-1.2-1.8-2.1c-0.1-0.1-1.4-1.9-2-3.8c-1.3-4.2,0.7-8.1,0.8-8.4
		c0.5-0.9,1.8-3.2,4.6-4.6c2-1.1,3.9-1.2,4.9-1.3v2c-0.9,0.1-2.7,0.4-4.5,1.5c-0.7,0.5-2.6,1.7-3.7,4.1c-1.6,3.6,0,7,0.3,7.6
		l5.5-9.8c0-0.1,0.1-0.2,0.1-0.3c0.2-0.3,0.5-0.9,1.1-1.4c0.2-0.2,0.6-0.4,1.1-0.6H32.7z"/>
	
		<linearGradient id="SVGID_00000097495402760777495690000010591562659983102132_" gradientUnits="userSpaceOnUse" x1="33.6533" y1="10.85" x2="44.9425" y2="10.85">
		<stop  offset="0" style="stop-color:#0071BC"/>
		<stop  offset="1" style="stop-color:#29ABE2"/>
	</linearGradient>
	<path style="fill:url(#SVGID_00000097495402760777495690000010591562659983102132_);" d="M33.7,4l0.2,4.9l7.2,12
		c0.5-0.5,1.1-1.2,1.7-2.2c0.1-0.1,1.3-2,1.8-3.9c1.2-4.3-1-8.1-1.1-8.4c-0.5-0.9-2-3.1-4.8-4.5c-2.1-1-4-1.1-5-1.1l0.1,2
		c0.9,0.1,2.7,0.3,4.5,1.4C39,4.6,41,5.8,42.1,8.2c1.7,3.5,0.2,7,0,7.6l-5.8-9.6c0-0.1-0.1-0.2-0.2-0.3c-0.2-0.3-0.5-0.9-1.2-1.4
		c-0.2-0.2-0.6-0.4-1.1-0.5L33.7,4z"/>
	
		<linearGradient id="SVGID_00000057833946053666517730000007600927364199085214_" gradientUnits="userSpaceOnUse" x1="28.183" y1="18.3955" x2="38.2252" y2="18.3955">
		<stop  offset="0" style="stop-color:#FF0000"/>
		<stop  offset="1" style="stop-color:#ED1C24"/>
	</linearGradient>
	<path style="fill:url(#SVGID_00000057833946053666517730000007600927364199085214_);" d="M35.4,18.8c-0.2-0.4-0.3-0.8-0.4-1.2
		c0,0,0,0,0,0c-0.1-0.1-0.1-0.3-0.2-0.4c0,0,0-0.1,0-0.1c-0.2-0.3-0.4-0.6-0.5-0.9c-0.3-0.9-0.6-1.8-0.9-2.8l-5.2,9.1
		c0.9,0.4,2.5,0.9,4.4,1c2.6,0.1,4.7-0.7,5.7-1.2L37,19.9C36.3,19.8,35.7,19.4,35.4,18.8z"/>
	
		<linearGradient id="SVGID_00000110442121562905249400000011945308453436758457_" gradientUnits="userSpaceOnUse" x1="32.7476" y1="18.402" x2="38.2252" y2="18.402">
		<stop  offset="0" style="stop-color:#0071BC"/>
		<stop  offset="1" style="stop-color:#29ABE2"/>
	</linearGradient>
	<polygon style="fill:url(#SVGID_00000110442121562905249400000011945308453436758457_);" points="32.7,23.4 33.3,13.4 38.2,22.2 
		36.9,22.7 36,23 35.4,23.2 34.9,23.3 34.4,23.3 33.8,23.4 33,23.4 	"/>
	<g>
		
			<linearGradient id="SVGID_00000087389795084869898940000011971866054758354835_" gradientUnits="userSpaceOnUse" x1="1.8261" y1="35.5993" x2="20.4907" y2="35.5993">
			<stop  offset="0" style="stop-color:#0071BC"/>
			<stop  offset="1" style="stop-color:#29ABE2"/>
		</linearGradient>
		<path style="fill:url(#SVGID_00000087389795084869898940000011971866054758354835_);" d="M8.7,38.1c-0.1-0.2-0.2-0.5-0.2-0.8
			c0-0.5,0.3-0.8,0.5-1c0.6-0.7,1.6-0.8,1.9-0.8l1.3-4.2c0-0.1,0.1-0.2,0.2-0.3c0.2-0.1,0.4-0.2,0.5-0.2c0.1,0,0.1,0,0.2,0l0.3,0.8
			l4,11.1c-0.6,0-1.3-0.1-2.2-0.3c-0.4-0.1-1.8-0.5-3.5-1.3c-1.8-0.9-2.8-2-4-3c-1-0.8-1.8-1.7-2.4-3c-0.4-1.1-0.3-1.7-0.2-2
			c0.2-0.5,0.5-0.8,0.8-1c0.9-0.7,1.9-0.9,2.5-1c0,0-0.3,0-0.3,0c-1.2,0-1.2,0-1.2,0c-1.2,0.1-2.4,0.1-3.5,0.8
			c-0.4,0.3-1.2,0.8-1.5,1.7c-0.4,1.2,0.1,2.3,0.3,2.7c0.5,1,1.5,1.7,2.7,2.5c0.2,0.1,0.4,0.3,0.5,0.3l1,0.7l-1.2,3.5h2.9L9,40.6
			c1.3,0.7,3.1,1.5,5.4,2c2.4,0.6,4.5,0.6,6.1,0.5l-4.4-11.9c-0.1-0.3-0.3-0.7-0.5-1.2c-0.3-0.6-0.4-0.9-0.5-1
			c-0.6-0.8-1.9-1-2.9-0.8c-0.1,0-1.3,0.3-2,1.3c-0.2,0.3-0.3,0.5-0.3,0.7L7.5,37l1,1l0.3,0.3V38.1z"/>
		
			<linearGradient id="SVGID_00000039110885140067683250000016310535807605026453_" gradientUnits="userSpaceOnUse" x1="9.0005" y1="38.9645" x2="17.6304" y2="38.9645">
			<stop  offset="0" style="stop-color:#FF0000"/>
			<stop  offset="1" style="stop-color:#ED1C24"/>
		</linearGradient>
		<path style="fill:url(#SVGID_00000039110885140067683250000016310535807605026453_);" d="M13.8,35.4c-0.4,0-1.6,0-2.4,0.8
			c-0.2,0.2-0.4,0.4-0.5,0.8c-0.1,0.5,0.1,1,0.2,1.2c0.5,1.2,2,2,2.5,2.4c1,0.6,2.4,1.3,4,2c-1.7-0.1-3-0.5-3.9-0.8
			c-0.3-0.1-2.1-0.8-3.7-2.2c-0.4-0.4-0.9-0.8-1-1.5c0-0.2-0.1-0.8,0.2-1.3c0.2-0.3,0.4-0.6,1-0.8c1.2-0.6,2.4-0.6,3.2-0.5H13.8z"/>
		<path class="st6" d="M23,35.7l-2.7-0.3c0.1-1,0.6-1.8,1.3-2.4c0.7-0.6,1.7-0.8,2.8-0.8c1,0,1.7,0.2,2.3,0.5
			c0.6,0.4,0.9,0.8,1.1,1.3s0.2,1.2,0.2,2.2v4.1c0,1.3,0.1,2,0.2,2.3h-2.6c-0.1-0.3-0.1-0.8-0.1-1.6c-0.6,1.2-1.6,1.8-2.8,1.8
			c-0.8,0-1.4-0.2-1.9-0.7c-0.5-0.5-0.7-1.2-0.7-2.1c0-1.1,0.4-2,1.1-2.6c0.8-0.6,2.1-1,4.1-1.1v-0.4c0-0.7-0.1-1.1-0.2-1.4
			c-0.1-0.3-0.4-0.4-0.8-0.4C23.4,34.1,23,34.6,23,35.7z M25.2,37.8c-0.8,0.1-1.4,0.3-1.8,0.5c-0.4,0.3-0.5,0.7-0.5,1.4
			c0,0.9,0.3,1.3,0.9,1.3c0.3,0,0.7-0.2,0.9-0.6c0.3-0.4,0.4-1.1,0.4-2.1V37.8z"/>
		<path class="st6" d="M30.1,28.9h2.8v4.7c0.5-0.9,1.3-1.3,2.5-1.3c0.7,0,1.2,0.2,1.6,0.5c0.4,0.3,0.7,0.7,0.8,1.2
			c0.1,0.5,0.2,1.2,0.2,2.2v6.5h-2.8v-6.5c0-0.7-0.1-1.1-0.2-1.3c-0.1-0.2-0.4-0.3-0.8-0.3c-0.4,0-0.7,0.1-0.9,0.3
			c-0.2,0.2-0.3,0.7-0.3,1.4v6.5h-2.8V28.9z"/>
		<path class="st6" d="M42.6,35.7L40,35.4c0.1-1,0.6-1.8,1.3-2.4c0.7-0.6,1.7-0.8,2.8-0.8c1,0,1.7,0.2,2.3,0.5
			c0.6,0.4,0.9,0.8,1.1,1.3c0.2,0.5,0.2,1.2,0.2,2.2v4.1c0,1.3,0.1,2,0.2,2.3h-2.6c-0.1-0.3-0.1-0.8-0.1-1.6
			c-0.6,1.2-1.6,1.8-2.8,1.8c-0.8,0-1.4-0.2-1.9-0.7c-0.5-0.5-0.7-1.2-0.7-2.1c0-1.1,0.4-2,1.1-2.6c0.8-0.6,2.1-1,4.1-1.1v-0.4
			c0-0.7-0.1-1.1-0.2-1.4c-0.1-0.3-0.4-0.4-0.8-0.4C43.1,34.1,42.7,34.6,42.6,35.7z M44.8,37.8c-0.8,0.1-1.4,0.3-1.8,0.5
			c-0.4,0.3-0.5,0.7-0.5,1.4c0,0.9,0.3,1.3,0.9,1.3c0.3,0,0.7-0.2,0.9-0.6c0.3-0.4,0.4-1.1,0.4-2.1V37.8z"/>
	</g>
	<g>
		
			<linearGradient id="SVGID_00000161606848196820404820000008645461617122697118_" gradientUnits="userSpaceOnUse" x1="50.6326" y1="39.2966" x2="58.2274" y2="39.2966">
			<stop  offset="0" style="stop-color:#0071BC"/>
			<stop  offset="1" style="stop-color:#29ABE2"/>
		</linearGradient>
		<path style="fill:url(#SVGID_00000161606848196820404820000008645461617122697118_);" d="M57.1,39.7c-0.1-1-0.1-2.3-0.1-3.2h0
			c-0.3,0.9-0.6,1.8-0.9,2.8L54.7,43H54l-1.2-3.5c-0.4-1-0.7-2-0.9-2.9h0c0,0.9-0.1,2.2-0.1,3.3L51.5,43h-0.9l0.5-7.4h1.2l1.3,3.6
			c0.3,0.9,0.6,1.7,0.8,2.5h0c0.2-0.8,0.5-1.6,0.8-2.5l1.3-3.6h1.2l0.5,7.4h-0.9L57.1,39.7z"/>
		
			<linearGradient id="SVGID_00000142168560991810529720000002659087658544887721_" gradientUnits="userSpaceOnUse" x1="59.3526" y1="40.3397" x2="64.0663" y2="40.3397">
			<stop  offset="0" style="stop-color:#0071BC"/>
			<stop  offset="1" style="stop-color:#29ABE2"/>
		</linearGradient>
		<path style="fill:url(#SVGID_00000142168560991810529720000002659087658544887721_);" d="M60.3,40.5c0,1.3,0.9,1.9,1.8,1.9
			c0.7,0,1.1-0.1,1.5-0.3l0.2,0.7c-0.3,0.2-0.9,0.3-1.8,0.3c-1.6,0-2.6-1.1-2.6-2.7c0-1.6,0.9-2.9,2.5-2.9c1.7,0,2.2,1.5,2.2,2.5
			c0,0.2,0,0.4,0,0.5H60.3z M63.1,39.8c0-0.6-0.3-1.6-1.3-1.6c-1,0-1.4,0.9-1.5,1.6H63.1z"/>
		
			<linearGradient id="SVGID_00000023246374634867284650000005223724386286547355_" gradientUnits="userSpaceOnUse" x1="65.2249" y1="40.2845" x2="69.8171" y2="40.2845">
			<stop  offset="0" style="stop-color:#0071BC"/>
			<stop  offset="1" style="stop-color:#29ABE2"/>
		</linearGradient>
		<path style="fill:url(#SVGID_00000023246374634867284650000005223724386286547355_);" d="M65.3,39.1c0-0.6,0-1,0-1.4h0.9l0.1,0.9
			h0c0.3-0.5,0.9-1,1.8-1c0.7,0,1.9,0.4,1.9,2.3V43h-1v-3.1c0-0.9-0.3-1.6-1.2-1.6c-0.6,0-1.1,0.5-1.3,1c0,0.1-0.1,0.3-0.1,0.5V43
			h-1V39.1z"/>
		
			<linearGradient id="SVGID_00000018923699725226775550000016924365031756777873_" gradientUnits="userSpaceOnUse" x1="71.3621" y1="40.406" x2="75.9101" y2="40.406">
			<stop  offset="0" style="stop-color:#0071BC"/>
			<stop  offset="1" style="stop-color:#29ABE2"/>
		</linearGradient>
		<path style="fill:url(#SVGID_00000018923699725226775550000016924365031756777873_);" d="M75.9,41.6c0,0.6,0,1,0,1.5H75L75,42.1h0
			c-0.3,0.4-0.8,1-1.8,1c-0.8,0-1.8-0.5-1.8-2.3v-3.1h1v3c0,1,0.3,1.7,1.2,1.7c0.7,0,1.1-0.5,1.3-0.9c0.1-0.1,0.1-0.3,0.1-0.5v-3.3
			h1V41.6z"/>
	</g>
</g>
</svg>
